<svg id="Layer_1" data-name="Layer 1" xmlns="http://www.w3.org/2000/svg" viewBox="0 0 550.47 138.74"><defs><style>.cls-1{fill:#0f2547;}.cls-2{fill:none;}.cls-3{fill:#fff;}</style></defs><title>Logo Word</title><rect id="_Rectangle_" data-name="&lt;Rectangle&gt;" class="cls-1" y="134.38" width="550.47" height="4.35"/><path class="cls-2" d="M107.4,565.71a42.35,42.35,0,0,0-18,3.79,18.13,18.13,0,0,0-.1,1.89A19.9,19.9,0,0,0,91,579.56a30.11,30.11,0,0,0,6.41,8.61q2.55,2.46,16.69,12.91,16.78,12.38,23,22a39.38,39.38,0,0,1,5.36,12.11A43.62,43.62,0,0,0,150,609.81q0-18.48-12.42-31.29A40.51,40.51,0,0,0,107.4,565.71Z" transform="translate(-39.41 -541.6)"/><path class="cls-2" d="M80.36,644a42.27,42.27,0,0,0,27.49,9.77,40.14,40.14,0,0,0,20.85-5.52,20.76,20.76,0,0,0,.71-5.4A21.91,21.91,0,0,0,125,630.07q-6.06-8.61-22.13-20.73T82.76,591.68a33.57,33.57,0,0,1-6.08-12.93Q65,591.13,64.94,610,64.94,631.46,80.36,644Z" transform="translate(-39.41 -541.6)"/><path class="cls-1" d="M154.92,561.49q-19.77-19.89-47.25-19.89a67.77,67.77,0,0,0-58.56,33.8,67.15,67.15,0,0,0-9,34.15q0,27.72,19.29,47.88t48.44,20.15q27.83,0,47.34-19.63t19.51-48Q174.69,581.38,154.92,561.49ZM76.68,578.75a33.57,33.57,0,0,0,6.08,12.93q4,5.45,20.11,17.65T125,630.07a21.91,21.91,0,0,1,4.39,12.74,20.76,20.76,0,0,1-.71,5.4,40.14,40.14,0,0,1-20.85,5.52A42.27,42.27,0,0,1,80.36,644q-15.42-12.5-15.42-34Q64.94,591.12,76.68,578.75Zm65.81,56.48a39.38,39.38,0,0,0-5.36-12.11q-6.24-9.66-23-22Q100,590.63,97.43,588.17A30.11,30.11,0,0,1,91,579.56a19.9,19.9,0,0,1-1.76-8.17,18.13,18.13,0,0,1,.1-1.89,42.35,42.35,0,0,1,18-3.79,40.51,40.51,0,0,1,30.22,12.8Q150,591.32,150,609.81A43.62,43.62,0,0,1,142.49,635.24Z" transform="translate(-39.41 -541.6)"/><g id="_Group_" data-name="&lt;Group&gt;"><g id="_Group_2" data-name="&lt;Group&gt;"><path class="cls-3" d="M107,548.9q26.25,0,43.93,17.51t17.68,43.12q0,25.37-17.64,43t-43,17.67q-25.7,0-43.38-17.59a57.84,57.84,0,0,1-17.68-42.57,61.56,61.56,0,0,1,8.06-30.87A59.5,59.5,0,0,1,107,548.9M107.47,659a49.42,49.42,0,0,0,24.9-6.52,46.71,46.71,0,0,0,17.86-17.84,50.14,50.14,0,0,0,6.41-25.15,48.91,48.91,0,0,0-6.41-24.88,47.89,47.89,0,0,0-18.05-17.8,48.85,48.85,0,0,0-24.7-6.68,49.33,49.33,0,0,0-42.25,24.68A50.05,50.05,0,0,0,58.78,610q0,20.59,14.28,34.78A47.06,47.06,0,0,0,107.47,659M107,546.47A61.92,61.92,0,0,0,52.79,578a64.23,64.23,0,0,0-8.37,32.06,60.43,60.43,0,0,0,18.4,44.29c12.2,12.14,27.37,18.3,45.09,18.3,17.51,0,32.56-6.18,44.74-18.38S171,627,171,609.53c0-17.66-6.19-32.75-18.4-44.84S125,546.47,107,546.47h0Zm0.51,110.12a44.91,44.91,0,0,1-32.71-13.48C65.76,634.16,61.2,623,61.2,610a47.89,47.89,0,0,1,6.13-24,45.89,45.89,0,0,1,17.05-17.1,45.41,45.41,0,0,1,23.09-6.35,46.68,46.68,0,0,1,23.5,6.36,45.72,45.72,0,0,1,17.16,16.91,46.74,46.74,0,0,1,6.09,23.67,48,48,0,0,1-6.1,24,44.53,44.53,0,0,1-16.95,16.93,47.25,47.25,0,0,1-23.7,6.21h0Z" transform="translate(-39.41 -541.6)"/></g></g><path class="cls-1" d="M182.45,610.11h5.16v55.56h-5.16V610.11Z" transform="translate(-39.41 -541.6)"/><path class="cls-1" d="M197.56,610.11h5.16v55.56h-5.16V610.11Z" transform="translate(-39.41 -541.6)"/><path class="cls-1" d="M209.13,625.59h5.45l13.78,30.87,13.38-30.87h5.49l-23.91,54.75h-5.45l7.72-17.7Z" transform="translate(-39.41 -541.6)"/><path class="cls-1" d="M270,655.58l4.61-2.76q4.86,9,11.24,9A10.77,10.77,0,0,0,291,660.5a9,9,0,0,0,3.65-3.41,8.82,8.82,0,0,0,1.25-4.53,9.19,9.19,0,0,0-1.84-5.34q-2.54-3.61-9.28-8.69t-8.44-7.41a13.54,13.54,0,0,1-2.87-8.29,12.58,12.58,0,0,1,1.69-6.45,12.09,12.09,0,0,1,4.77-4.59,13.75,13.75,0,0,1,6.69-1.68,14.26,14.26,0,0,1,7.17,1.9q3.33,1.9,7.06,7l-4.42,3.35a21.21,21.21,0,0,0-5.21-5.34,9,9,0,0,0-4.7-1.29,7.44,7.44,0,0,0-5.36,2,6.51,6.51,0,0,0-2.08,4.9,8.34,8.34,0,0,0,.74,3.43,12.62,12.62,0,0,0,2.69,3.61q1.07,1,7,5.42,7,5.19,9.65,9.25a14.9,14.9,0,0,1,2.62,8.14,13.82,13.82,0,0,1-4.48,10.24A15,15,0,0,1,286.38,667a16,16,0,0,1-9-2.63Q273.42,661.77,270,655.58Z" transform="translate(-39.41 -541.6)"/><path class="cls-1" d="M312.36,610.11h5.16v22.66a21.9,21.9,0,0,1,6.89-6.17,16.76,16.76,0,0,1,8.14-2,14.22,14.22,0,0,1,8,2.28,13.64,13.64,0,0,1,5.14,6.13q1.66,3.85,1.66,12.07v20.63h-5.16V646.55a48.83,48.83,0,0,0-.55-9.25,10.48,10.48,0,0,0-3.48-6,10.3,10.3,0,0,0-6.61-2,12.72,12.72,0,0,0-8.38,3.09,14.49,14.49,0,0,0-4.88,7.66q-0.74,2.95-.74,10.9v14.7h-5.16V610.11Z" transform="translate(-39.41 -541.6)"/><path class="cls-1" d="M377.35,624.56a19.86,19.86,0,0,1,15.35,6.71,21.52,21.52,0,0,1-.31,29.16,21.19,21.19,0,0,1-30.12,0A21.47,21.47,0,0,1,362,631.3,19.84,19.84,0,0,1,377.35,624.56Zm0,5a14.88,14.88,0,0,0-11.05,4.75,15.89,15.89,0,0,0-4.62,11.5,16.29,16.29,0,0,0,2.11,8.1,14.92,14.92,0,0,0,5.69,5.8,16.19,16.19,0,0,0,15.75,0,14.93,14.93,0,0,0,5.69-5.8,16.29,16.29,0,0,0,2.11-8.1,15.86,15.86,0,0,0-4.64-11.5A14.9,14.9,0,0,0,377.33,629.6Z" transform="translate(-39.41 -541.6)"/><path class="cls-1" d="M407,610.11h5.16v55.56H407V610.11Z" transform="translate(-39.41 -541.6)"/><path class="cls-1" d="M441.86,624.56a19.86,19.86,0,0,1,15.35,6.71,21.52,21.52,0,0,1-.31,29.16,21.19,21.19,0,0,1-30.12,0,21.47,21.47,0,0,1-.31-29.12A19.84,19.84,0,0,1,441.86,624.56Zm0,5a14.88,14.88,0,0,0-11.05,4.75,15.89,15.89,0,0,0-4.62,11.5,16.29,16.29,0,0,0,2.11,8.1,14.92,14.92,0,0,0,5.69,5.8,16.19,16.19,0,0,0,15.75,0,14.93,14.93,0,0,0,5.69-5.8,16.29,16.29,0,0,0,2.11-8.1,15.86,15.86,0,0,0-4.64-11.5A14.9,14.9,0,0,0,441.84,629.6Z" transform="translate(-39.41 -541.6)"/><path class="cls-1" d="M476.78,610.7h5.16v14.88h8.18V630h-8.18v35.63h-5.16V630h-7v-4.46h7V610.7Z" transform="translate(-39.41 -541.6)"/><path class="cls-1" d="M537.79,625.59v40.08h-5.08v-6.89a22.1,22.1,0,0,1-7.28,5.93,20.33,20.33,0,0,1-23.36-4.18,20.69,20.69,0,0,1-6-15,20.32,20.32,0,0,1,6.08-14.81,19.82,19.82,0,0,1,14.63-6.15,18.92,18.92,0,0,1,8.93,2.1,20.33,20.33,0,0,1,7,6.3v-7.37h5.08Zm-20.61,3.94a15.55,15.55,0,0,0-13.74,8.06,16.24,16.24,0,0,0,0,16.19,15.8,15.8,0,0,0,5.83,6,15.24,15.24,0,0,0,7.86,2.15,16.1,16.1,0,0,0,8-2.13A14.93,14.93,0,0,0,531,654a16.49,16.49,0,0,0,2-8.21,16,16,0,0,0-4.58-11.63A15.18,15.18,0,0,0,517.18,629.53Z" transform="translate(-39.41 -541.6)"/><path class="cls-1" d="M549.4,625.59h5.16v7.18a21.55,21.55,0,0,1,6.85-6.17,16.84,16.84,0,0,1,8.18-2,14.22,14.22,0,0,1,8,2.28A13.61,13.61,0,0,1,582.7,633q1.66,3.87,1.66,12v20.63H579.2V646.55a47.19,47.19,0,0,0-.57-9.25,10.16,10.16,0,0,0-3.44-6,10.38,10.38,0,0,0-6.63-2,12.72,12.72,0,0,0-8.38,3.09,14.49,14.49,0,0,0-4.88,7.66q-0.74,3-.74,10.9v14.7H549.4V625.59Z" transform="translate(-39.41 -541.6)"/></svg>